# xmcd CD database file
#
# Track frame offsets:
#	150
#	21177
#	42495
#	63560
#	84587
#
# Disc length: 1411 seconds
#
# Revision: 1
# Processed by: cddbd v1.5.2PL0 Copyright (c) Steve Scherf et al.
# Submitted via: jetAudio 7
#
DISCID=3d058105
DTITLE=Tarik Tüfekci - Ince Ince
DYEAR=2009
DGENRE=country
TTITLE0=Ince Ince
TTITLE1=Kolbasti
TTITLE2=Sen Kara Bende Kara
TTITLE3=Solistler
TTITLE4=Unutamadim
EXTD=
EXTT0=
EXTT1=
EXTT2=
EXTT3=
EXTT4=
PLAYORDER=
